<svg xmlns="http://www.w3.org/2000/svg" viewBox="0 0 493.62 550"><g id="Слой_2" data-name="Слой 2"><g id="Слой_1-2" data-name="Слой 1"><path d="M324.81,304H306.36l16.82-9.37a157.43,157.43,0,0,0,80.89-137.41C404.07,70.55,333.53,0,246.81,0S89.54,70.55,89.54,157.27a157.47,157.47,0,0,0,80.9,137.41l10,5.55-10.84,3.57A246.35,246.35,0,0,0,0,538.2a11.8,11.8,0,1,0,23.59,0,223.22,223.22,0,0,1,446.43,0,11.8,11.8,0,1,0,23.6,0A246.39,246.39,0,0,0,324.81,304ZM152.33,251.75a133.05,133.05,0,0,1-39.21-94.47v0a133.87,133.87,0,1,1,39.21,94.49Z"/></g></g></svg>